<svg xmlns="http://www.w3.org/2000/svg" width="50" height="50" viewBox="0 0 50 50"><defs><style>.a{fill:#7b3fe4;}.b{fill:#fff;}</style></defs><circle class="a" cx="25" cy="25" r="25"/><path class="b" d="M38.147,23.633a1.879,1.879,0,0,0-1.876,0l-4.3,2.564-2.924,1.672-4.3,2.564a1.879,1.879,0,0,1-1.876,0l-3.421-2.007A1.926,1.926,0,0,1,18.5,26.81V22.852a1.81,1.81,0,0,1,.938-1.616l3.366-1.951a1.879,1.879,0,0,1,1.876,0l3.366,1.951a1.926,1.926,0,0,1,.938,1.616v2.564l2.924-1.728V21.124a1.81,1.81,0,0,0-.938-1.616l-6.235-3.679a1.879,1.879,0,0,0-1.876,0l-6.345,3.679a1.81,1.81,0,0,0-.938,1.616v7.413a1.81,1.81,0,0,0,.938,1.616l6.345,3.679a1.878,1.878,0,0,0,1.876,0l4.3-2.508L31.967,29.6l4.3-2.508a1.879,1.879,0,0,1,1.876,0l3.366,1.951a1.926,1.926,0,0,1,.938,1.616v3.957a1.81,1.81,0,0,1-.938,1.616l-3.366,2.007a1.879,1.879,0,0,1-1.876,0L32.9,36.285a1.926,1.926,0,0,1-.938-1.616V32.1l-2.924,1.728V36.4a1.81,1.81,0,0,0,.938,1.616l6.345,3.679a1.879,1.879,0,0,0,1.876,0l6.345-3.679a1.925,1.925,0,0,0,.938-1.616V28.983a1.81,1.81,0,0,0-.938-1.616Z" transform="translate(-5.532 -3.76)"/></svg>