<svg xmlns="http://www.w3.org/2000/svg" width="50" height="50" viewBox="0 0 50 50"><defs><style>.a{fill:#e6007a;}.b{fill:#fff;}</style></defs><circle class="a" cx="25" cy="25" r="25"/><path class="b" d="M9.124,28.1c0-1.819,2.542-3.293,5.676-3.293s5.676,1.474,5.676,3.293S17.935,31.4,14.8,31.4,9.124,29.921,9.124,28.1ZM22.73,26.8c-1.578-.907-1.585-3.837-.016-6.542s4.119-4.163,5.7-3.256,1.585,3.836.016,6.541C27.175,25.7,25.3,27.07,23.786,27.07A2.09,2.09,0,0,1,22.73,26.8ZM1.172,23.544C-.4,20.838-.389,17.909,1.191,17s4.13.55,5.7,3.255,1.56,5.635-.019,6.543a2.093,2.093,0,0,1-1.056.27C4.3,27.069,2.425,25.7,1.172,23.544ZM1.19,14.4C-.39,13.487-.4,10.558,1.171,7.852S5.291,3.689,6.87,4.6s1.588,3.837.019,6.542C5.636,13.3,3.756,14.665,2.246,14.665A2.091,2.091,0,0,1,1.19,14.4Zm21.526-3.256C21.147,8.434,21.155,5.5,22.732,4.6s4.128.551,5.7,3.256,1.561,5.634-.017,6.541a2.09,2.09,0,0,1-1.055.269C25.847,14.665,23.968,13.3,22.716,11.139ZM9.124,3.293C9.124,1.474,11.666,0,14.8,0s5.676,1.474,5.676,3.293S17.935,6.585,14.8,6.585,9.124,5.111,9.124,3.293Z" transform="translate(10.2 9.302)"/></svg>