<svg xmlns="http://www.w3.org/2000/svg" xmlns:xlink="http://www.w3.org/1999/xlink" width="50" height="50" viewBox="0 0 50 50"><defs><style>.a{fill:url(#a);}</style><linearGradient id="a" x1="0.077" y1="1.021" x2="0.896" y2="-0.01" gradientUnits="objectBoundingBox"><stop offset="0" stop-color="#d526fc"/><stop offset="0.078" stop-color="#b348ee"/><stop offset="0.302" stop-color="#9964e3"/><stop offset="0.502" stop-color="#5497d5"/><stop offset="0.6" stop-color="#43b4ca"/><stop offset="0.722" stop-color="#28e0b9"/><stop offset="0.969" stop-color="#19fb9b"/><stop offset="1" stop-color="#19fb9b"/></linearGradient></defs><circle cx="25" cy="25" r="25"/><path class="a" d="M29.84,21.153l-4.951,5.31a1.153,1.153,0,0,1-.839.366H.573a.577.577,0,0,1-.568-.672.589.589,0,0,1,.146-.3L5.1,20.552a1.148,1.148,0,0,1,.838-.366H29.413a.575.575,0,0,1,.318.09.573.573,0,0,1,.108.877ZM24.888,10.458a1.153,1.153,0,0,0-.839-.366H.573a.577.577,0,0,0-.568.672.589.589,0,0,0,.146.3L5.1,16.371a1.153,1.153,0,0,0,.838.366H29.413a.584.584,0,0,0,.314-.1.578.578,0,0,0,.105-.872l-4.944-5.312ZM.573,6.643H24.049a1.153,1.153,0,0,0,.839-.366L29.84.966A.573.573,0,0,0,29.948.34a.563.563,0,0,0-.217-.252A.575.575,0,0,0,29.413,0H5.936a1.139,1.139,0,0,0-.457.1A1.126,1.126,0,0,0,5.1.366L.151,5.676a.59.59,0,0,0-.146.294.576.576,0,0,0,.568.673h0Z" transform="translate(10.003 11.586)"/></svg>