<svg xmlns="http://www.w3.org/2000/svg" width="50" height="50" viewBox="0 0 50 50"><defs><style>.a{fill:#ffb900;}.b{fill:#fff;}</style></defs><circle class="a" cx="25" cy="25" r="25"/><path class="b" d="M0,15.487l3.5,3.5,3.5-3.5-3.5-3.5Zm9.471-2.473L15.487,7,21.5,13.017l3.5-3.5L15.487,0,5.972,9.514Zm9.565,2.47h0l-3.55-3.55L12.86,14.559h0l-.3.3-.622.622h0l0,0,0,0,3.55,3.55,3.55-3.554h0Zm8.434-3.495-3.5,3.5,3.5,3.5,3.5-3.5Zm-18,5.968,6.015,6.015L21.5,17.956,25,21.451v0l-9.518,9.518L5.972,21.459l-.008-.008Z" transform="translate(9.513 9.513)"/></svg>