<svg xmlns="http://www.w3.org/2000/svg" viewBox="0 0 200 53.237"><defs><style>.a{fill:none;}</style></defs><rect class="a" width="200" height="53.237"/><path d="M5.413,34.718a18.274,18.274,0,0,0-5.4-1.776c-.374-.76,6.1-3.906,7.407-4,.418-.029.5-.613.064-1.419-.527-.964.1-.958.752-.951.407,0,.82.008.958-.227.359-.613.17-1.156-.171-2.353v0c-3.187-2.239-10.039-6.846-1.943-8.326a32.211,32.211,0,0,1,6.765-.257,45.926,45.926,0,0,0,4.619-.006c2.119-.15,2.965-.38,4.242-1.431-.112,1.547-1.051,1.525-1.4,2.01.307.145.523.01.841-.032,2.067-.592.835,3.316.181,3.914-.2.184-.385.214-.473.634.136.527-.5.743-.171,1.516.437,1.02.866,1.418.573,2.92a20.339,20.339,0,0,1-.309,2.251,7.962,7.962,0,0,1-.921,1.583,6.288,6.288,0,0,0,1.5-.388c1.075-.4,1.022-.365.4.471-2.457,3.271-1.035,8.938-.556,9.825-1.318-2.236-2.5-4.9-10.33-6.656,1.193.67,3.828,2.138,3.05,4.468-1.2-1.975-5.084-3.526-8.844-4.363-.164-.037,5.161,3.285,6.843,7.394C13.088,39.519,9.263,36.872,5.413,34.718Zm15.063-.129c.687-1.224.589-2.94-.325-3.319a1.3,1.3,0,0,1,.053.755c-.205-.577-.944-.754-1.363-.885.212.234.57.474.48.724a5.494,5.494,0,0,0-2.564-.518h.013C17.61,31.346,20.573,34.018,20.475,34.589Zm-.549-6.747c.226.535.321.491.45.56a5.991,5.991,0,0,1,.391-.577c.1-.1.141-.067.185-.033.074.059.148.116.515-.512.437-.746.03-1,.193-1.567.073,0,1.084-.765-.379-.624a8.413,8.413,0,0,0-2.014.55,3,3,0,0,1-2.677-.6c.071-.086.131-.218.24-.178a2.9,2.9,0,0,0,2.268.6,15.473,15.473,0,0,1,2.768-.7l0,0c.232-1.032-.185-3.523-1.319-3.9a1.9,1.9,0,0,1-.769-.389,1.94,1.94,0,0,0-.766-.515,1.909,1.909,0,0,0-.021.835c-.217-.382-.378-.668-.541-.738a9.266,9.266,0,0,1-1.464,1.412c-.875.534.335.9.776,1.186-2.787.762-2.077,2.483-2.055,2.429a.826.826,0,0,1,.235-.361,3.327,3.327,0,0,0,.694,2.414c.359.3.078.126.417-.212.074.2,1.959,1.482,1.939,1.269a.9.9,0,0,1,.056-.562C20.11,29.207,19.375,27.887,19.926,27.842ZM8.452,18.165a.228.228,0,0,0-.006.239.505.505,0,0,1,.012.326l0,0a.956.956,0,0,1-.137.274,1.282,1.282,0,0,0-.894.81c-.22.643.148,1.536,1.651,2.273.365.286,1.173.694,1.46.174l0-.014,0-.007-.163-.822h0l0,.022h0v.017c-.026.213-.18.264-.5.067a1.39,1.39,0,0,1-.735-1.474.775.775,0,0,1,.4-.584l-.017-.009.022-.008A1.412,1.412,0,0,1,9.2,19.2c-.22-.243-.411-.571-.3-.725a.624.624,0,0,1,.411-.009,2.116,2.116,0,0,1,1.092.628q.157.176.32.387l0-.032a.717.717,0,0,0-.549-.909c-.347-.086-.895-.544-1.21-.558H8.926A.542.542,0,0,0,8.452,18.165Zm4.2.968h0c.958,1.16-.158,3.836,3.807,2.354,1.229-.516,1.427-1.5,1.761-2.594.246-.807.55-.6.806-.136.076.136.164.522.233.7a1.405,1.405,0,0,0,1.108.979c1.872.4,2.67-2.187,2.645-3.515-.005-.338-.007-.7-.383-.77a6.018,6.018,0,0,0-2.725.833c-1.831.922-1.21.513-3.339.51a9.115,9.115,0,0,0-2.433.259c-.991.246-1.51.492-4.6-.149C9.385,18.781,11.876,18.188,12.657,19.133Zm.283-1.455c1.086-.068,2.724-.437,4.079-.423,1.022.012,2.116.283,2.934-.807l-.026.005.014-.019c-3.56.75-4.25.486-7.622.4a4.855,4.855,0,0,0-1.816.243c-.282.137-.31.125-.305.155s.013.032,0,.113a.656.656,0,0,1-.023.088v0l0,0-.005.016a2.448,2.448,0,0,1,1.541-.2,9.5,9.5,0,0,0,2.227-.1c-.054.138-.6.35-1,.516l.044,0Zm22.871,16.9A6.865,6.865,0,0,1,31,27.593h9.69a2.293,2.293,0,0,0,1.681,2.439,13.531,13.531,0,0,0,4.021.527,9.418,9.418,0,0,0,3.791-.693,2.267,2.267,0,0,0,1.581-2.143q0-1.219-1.664-1.6a17.631,17.631,0,0,0-3.873-.379l-3.3.032a32.051,32.051,0,0,1-5.85-.478,8.941,8.941,0,0,1-4.318-2.01A5.641,5.641,0,0,1,31,18.792a6.242,6.242,0,0,1,2.553-5.422A13.436,13.436,0,0,1,39.4,11.03a45.574,45.574,0,0,1,6.988-.511,28.065,28.065,0,0,1,10.317,1.8q4.581,1.8,4.581,7H51.764A2.23,2.23,0,0,0,50.2,17.242a10.17,10.17,0,0,0-3.806-.757,13.472,13.472,0,0,0-4.038.527q-1.665.526-1.664,1.68,0,1.318,1.681,1.813a14.208,14.208,0,0,0,3.791.528L48.072,21q1.582-.068,2.472-.068a18.942,18.942,0,0,1,7.763,1.353q2.983,1.35,2.983,5.306,0,5.175-4.581,6.988a27.841,27.841,0,0,1-10.317,1.813A29.785,29.785,0,0,1,35.811,34.581Zm109.595.066a13.668,13.668,0,0,1-5.587-4.531,11.2,11.2,0,0,1-2.06-6.477V11.245h9.79V23.539a4.585,4.585,0,0,0,1.6,3.873,6.789,6.789,0,0,0,4.268,1.236,5.892,5.892,0,0,0,3.774-1.268,4.606,4.606,0,0,0,1.6-3.84V11.245h9.591V23.572a10.977,10.977,0,0,1-2.059,6.476,14.126,14.126,0,0,1-5.488,4.581,16.825,16.825,0,0,1-7.449,1.665A18.781,18.781,0,0,1,145.406,34.646Zm-74.985,0a13.665,13.665,0,0,1-5.588-4.531,11.187,11.187,0,0,1-2.059-6.477V11.245h9.789V23.539a4.587,4.587,0,0,0,1.6,3.873,6.794,6.794,0,0,0,4.269,1.236A5.892,5.892,0,0,0,82.2,27.379a4.606,4.606,0,0,0,1.6-3.84V11.245h9.592V23.572a10.971,10.971,0,0,1-2.06,6.476,14.117,14.117,0,0,1-5.487,4.581,16.831,16.831,0,0,1-7.45,1.665A18.768,18.768,0,0,1,70.421,34.646Zm100.1.989V11.245h18.985a13.537,13.537,0,0,1,5.423,1.021,8.522,8.522,0,0,1,3.659,2.851,7.12,7.12,0,0,1,1.3,4.235v.132a7.674,7.674,0,0,1-1.3,4.482,7.96,7.96,0,0,1-3.641,2.834,14.3,14.3,0,0,1-5.44.958h-9.591v7.877Zm9.394-18.03V21.3h9.311a2.8,2.8,0,0,0,1.813-.445,1.719,1.719,0,0,0,.511-1.368,1.692,1.692,0,0,0-.445-1.319,2.179,2.179,0,0,0-1.187-.494,18.734,18.734,0,0,0-2.257-.1H186.64Q185.652,17.606,179.916,17.606ZM116.8,35.636V18.825H106.743V11.245h29.369v7.581H126.19v16.81Zm-21.26,0V11.245h9.394V35.636ZM18.977,22.264c-.232-.157-.758-.437-1.044-.3-.4.187-.184-.56-.028-.691.274-.232.564-.061.8.11.2.146.368.292.453.187h0a1.038,1.038,0,0,1,.487-.577c.21-.108.3-.024.442.2a.5.5,0,0,1,.079.463A2.9,2.9,0,0,0,19.72,22c-.243.238-.229.456-.368.456A.869.869,0,0,1,18.977,22.264ZM14.31,21.48h0c-.169-.043-.159-.112-.1-.266.245-.609,1.688-3.028,1.907-3.42l.6.023a25.583,25.583,0,0,1-1.771,3.609.356.356,0,0,1-.295.1A1.463,1.463,0,0,1,14.31,21.48Zm1.406-.517,1.376-3.112.487.04c.392.031.291,1.141.246,1.448a2.364,2.364,0,0,1-1.967,2.106v0a1.436,1.436,0,0,1-.288.052C15.4,21.5,15.553,21.334,15.716,20.964Zm-2.021-.105c-.111-.237-.2-.527-.275-.716-.52-1.639.41-2.106,1.93-2.283.356-.041.332-.015.222.189L14.134,20.7h0c-.126.233-.179.421-.252.421C13.837,21.117,13.782,21.043,13.694,20.858Zm6.967-.752c-.157,0-.347-.033-.414-.031v0c-.261.009.752-2.15,1.175-2.951.128-.241.121-.337.356-.382.326-.064.35-.052.235.256-.226.6-.8,2.171-1.14,2.822-.092.18-.166.289-.211.289Zm.9-1.012.756-1.775c.245-.6.236-.652.279.068a3.778,3.778,0,0,1-.265,1.685,1.859,1.859,0,0,1-.794.945v0a.56.56,0,0,1-.22.066C21.015,20.081,21.455,19.351,21.565,19.094Zm-2,.336c-.238-.677-.485-1.589.038-1.969a6.7,6.7,0,0,1,1.027-.405c.54-.181.381-.053.155.463L20,19.325h0c-.145.333-.192.528-.242.528S19.67,19.723,19.568,19.43Zm-7.081-4.656c-2.159-.264-3.961-.527-5.8.093h0C6.4,12.173,2.626,6.084,2.519,4.423,2.331,1.49,11.973-.157,15.379.012c2.131.106,2.93.175,3.211,2.215l1.455,11.489c.851-.01,1.417-1.148,2.383-1.113.463.018.71.118.546.6-.292.863-1.795,1.344-2.847,1.53a21.284,21.284,0,0,1-3.721.326A31.489,31.489,0,0,1,12.487,14.774Zm4.737-1.194.607-.048c-.139-.636-.693-2.44-1.111-3.677-.14-.417-.2-.744-.507-.885L16.2,8.965a.791.791,0,0,0-.242-.063,2.722,2.722,0,0,0-.994.07c-.209.038-.176.362.116.756a12.164,12.164,0,0,1,2.14,3.843h0Zm.889-.1,0,.011.562-.063C18.6,12.548,17.59,4.162,17.24,2.423c-.143-.715-.14-1.231-.853-1.409A3.743,3.743,0,0,0,15.033.935a.2.2,0,0,0-.181.116l0,0v0a1.14,1.14,0,0,0,.2.926c1.1,1.972,2.654,9.327,3.051,11.5h.007Zm-.892.09h0Z" transform="translate(0.002 13.718)"/></svg>